Input #0, mov,mp4,m4a,3gp,3g2,mj2, from '/home/hbattu/projects/huberman-gpt/huberman-audio/mp3/tmprxhqstyp.mp4':
  Metadata:
    major_brand     : dash
    minor_version   : 0
    compatible_brands: iso6mp41
    creation_time   : 2021-06-14T17:56:11.000000Z
  Duration: 02:05:30.02, start: 0.000000, bitrate: 129 kb/s
    Stream #0:0(und): Audio: aac (LC) (mp4a / 0x6134706D), 44100 Hz, stereo, fltp, 0 kb/s (default)
    Metadata:
      creation_time   : 2021-06-14T17:56:11.000000Z
      handler_name    : ISO Media file produced by Google Inc.
Stream mapping:
  Stream #0:0 -> #0:0 (aac (native) -> mp3 (libmp3lame))
Press [q] to stop, [?] for help
[graph_0_in_0_0 @ 0x562bb47e1000] tb:1/44100 samplefmt:fltp samplerate:44100 chlayout:0x3
Output #0, mp3, to '../huberman-audio/mp3/VQLU7gpk_X8.mp3':
  Metadata:
    major_brand     : dash
    minor_version   : 0
    compatible_brands: iso6mp41
    TSSE            : Lavf58.29.100
    Stream #0:0(und): Audio: mp3 (libmp3lame), 44100 Hz, stereo, fltp, delay 1105 (default)
    Metadata:
      creation_time   : 2021-06-14T17:56:11.000000Z
      handler_name    : ISO Media file produced by Google Inc.
      encoder         : Lavc58.54.100 libmp3lame
No more output streams to write to, finishing.
size=  117657kB time=02:05:30.03 bitrate= 128.0kbits/s speed=95.1x    
[AVIOContext @ 0x562bb46d0900] Statistics: 0 seeks, 159 writeouts
video:0kB audio:117657kB subtitle:0kB other streams:0kB global headers:0kB muxing overhead: 0.000287%
Input file #0 (/home/hbattu/projects/huberman-gpt/huberman-audio/mp3/tmprxhqstyp.mp4):
  Input stream #0:0 (audio): 324291 packets read (120480357 bytes); 324291 frames decoded (332073984 samples); 
  Total: 324291 packets (120480357 bytes) demuxed
Output file #0 (../huberman-audio/mp3/VQLU7gpk_X8.mp3):
  Output stream #0:0 (audio): 288259 frames encoded (332073984 samples); 288260 packets muxed (120480914 bytes); 
  Total: 288260 packets (120480914 bytes) muxed
[AVIOContext @ 0x562bb46f5a40] Statistics: 2 seeks, 461 writeouts
[AVIOContext @ 0x562bb46d9880] Statistics: 121865765 bytes read, 0 seeks
